<svg width="420" height="415" viewBox="0 0 420 415" fill="none" xmlns="http://www.w3.org/2000/svg">
<path d="M247.489 387.788C241.853 385.917 237.642 381.133 236.454 375.252L228.252 334.64L158.093 337.132L149.459 379.441C148.249 385.366 153.091 391.31 158.665 393.493L188.019 404.983C193.479 407.119 199.347 407.971 205.18 407.472L267.215 402.162C269.028 402.008 270.483 400.58 270.694 398.752C270.905 396.921 272.176 394.868 270.446 394.294L247.489 387.788Z" fill="#97A6B7"/>
<path d="M248.184 385.318C242.554 383.472 238.347 378.747 237.16 372.941L228.967 332.84L160.516 335.303L151.891 377.078C150.683 382.929 153.879 388.796 159.449 390.952L188.773 402.298C194.227 404.408 200.09 405.249 205.917 404.755L267.89 399.513C269.701 399.36 271.155 397.952 271.366 396.145C271.577 394.339 270.487 392.633 268.759 392.067L248.184 385.318Z" fill="url(#paint0_linear_116_1956)"/>
<path d="M14.7312 361.633C7.12229 362.087 0.898438 357.149 0.898438 350.623V115.412C0.898438 108.886 7.12229 103.846 14.7312 104.176L368.115 128.652C373.701 128.894 376.698 124.383 376.698 129.933V329.977C376.698 335.528 372.175 340.314 366.59 340.647L14.7312 361.633Z" fill="#97A6B7"/>
<path d="M17.8933 361.633C10.2844 362.087 4.06055 357.149 4.06055 350.623V115.412C4.06055 108.886 10.2844 103.846 17.8933 104.176L369.75 119.429C375.337 119.671 379.859 124.383 379.859 129.933V329.977C379.859 335.528 375.335 340.314 369.75 340.647L17.8933 361.633Z" fill="white"/>
<path opacity="0.3" d="M369.751 124.138L17.8936 109.656C13.8261 109.488 10.5195 112.178 10.5195 115.663V298.595V350.27C10.5195 353.755 13.8261 356.389 17.8936 356.156L369.751 335.941C372.745 335.769 375.166 333.216 375.166 330.238V284.508V129.752C375.165 126.774 372.744 124.261 369.751 124.138Z" fill="#D8DEE8"/>
<path d="M367.135 319.012L21.7064 336.072C18.0802 336.25 15.1348 333.854 15.1348 330.716V118.744C15.1348 115.607 18.0817 113.173 21.7064 113.306L367.135 126.135C369.845 126.236 372.039 128.509 372.039 131.212V313.875C372.039 316.578 369.847 318.878 367.135 319.012Z" fill="url(#paint1_linear_116_1956)"/>
<path opacity="0.6" d="M107.879 135.692L28.9902 133.371V125.846L107.879 128.399V135.692Z" fill="white"/>
<path opacity="0.36" d="M145.029 134.705L126.807 134.152V129.012L145.029 129.601V134.705Z" fill="white"/>
<path opacity="0.36" d="M145.029 141.794L126.807 141.296V136.154L145.029 136.691V141.794Z" fill="white"/>
<path d="M235.847 144.281L165.146 142.345V137.284L235.847 139.367V144.281Z" fill="url(#paint2_linear_116_1956)"/>
<path opacity="0.5" d="M247.439 151.393L177.441 149.678V144.643L247.439 146.503V151.393Z" fill="url(#paint3_linear_116_1956)"/>
<path opacity="0.5" d="M247.439 158.188L177.441 156.675V151.64L247.439 153.297V158.188Z" fill="url(#paint4_linear_116_1956)"/>
<path opacity="0.6" d="M247.439 164.981L177.441 163.672V158.637L247.439 160.091V164.981Z" fill="white"/>
<path opacity="0.36" d="M145.029 148.884L126.807 148.438V143.297L145.029 143.782V148.884Z" fill="white"/>
<path opacity="0.36" d="M145.029 155.975L126.807 155.581V150.44L145.029 150.872V155.975Z" fill="white"/>
<path opacity="0.36" d="M145.029 163.066L126.807 162.725V157.584L145.029 157.963V163.066Z" fill="white"/>
<path opacity="0.36" d="M145.029 170.156L126.807 169.868V164.727L145.029 165.052V170.156Z" fill="white"/>
<path opacity="0.6" d="M193.863 170.928L149.006 170.219V165.123L193.863 165.926V170.928Z" fill="white"/>
<path opacity="0.36" d="M145.029 177.246L126.807 177.011V171.869L145.029 172.143V177.246Z" fill="white"/>
<path opacity="0.36" d="M145.029 184.336L126.807 184.153V179.013L145.029 179.233V184.336Z" fill="white"/>
<path opacity="0.36" d="M145.029 191.427L126.807 191.297V186.156L145.029 186.324V191.427Z" fill="white"/>
<path opacity="0.5" d="M214.879 178.148L165.146 177.506V172.445L214.879 173.191V178.148Z" fill="url(#paint5_linear_116_1956)"/>
<path opacity="0.6" d="M240.716 185.297L177.441 184.662V179.626L240.716 180.392V185.297Z" fill="white"/>
<path d="M240.716 192.109L177.441 191.659V186.623L240.716 187.206V192.109Z" fill="url(#paint6_linear_116_1956)"/>
<path opacity="0.36" d="M145.029 198.517L126.807 198.44V193.299L145.029 193.415V198.517Z" fill="white"/>
<path opacity="0.36" d="M145.029 205.608L126.807 205.583V200.441L145.029 200.504V205.608Z" fill="white"/>
<path opacity="0.36" d="M145.029 212.699L126.807 212.726V207.586L145.029 207.595V212.699Z" fill="white"/>
<path opacity="0.36" d="M145.029 219.788L126.807 219.87V214.728L145.029 214.685V219.788Z" fill="white"/>
<path opacity="0.36" d="M145.029 226.879L126.807 227.012V221.871L145.029 221.776V226.879Z" fill="white"/>
<path opacity="0.36" d="M145.029 233.969L126.807 234.155V229.014L145.029 228.866V233.969Z" fill="white"/>
<path opacity="0.36" d="M145.029 241.06L126.807 241.299V236.158L145.029 235.957V241.06Z" fill="white"/>
<path opacity="0.36" d="M145.029 248.15L126.807 248.442V243.3L145.029 243.046V248.15Z" fill="white"/>
<path opacity="0.36" d="M145.029 255.241L126.807 255.584V250.443L145.029 250.137V255.241Z" fill="white"/>
<path opacity="0.36" d="M145.029 262.33L126.807 262.727V257.587L145.029 257.227V262.33Z" fill="white"/>
<path opacity="0.36" d="M145.029 269.421L126.807 269.871V264.73L145.029 264.318V269.421Z" fill="white"/>
<path opacity="0.36" d="M145.029 276.511L126.807 277.014V271.873L145.029 271.409V276.511Z" fill="white"/>
<path opacity="0.36" d="M145.029 283.602L126.807 284.157V279.015L145.029 278.498V283.602Z" fill="white"/>
<path opacity="0.36" d="M145.029 290.693L126.807 291.299V286.159L145.029 285.589V290.693Z" fill="white"/>
<path opacity="0.36" d="M145.029 297.782L126.807 298.443V293.302L145.029 292.679V297.782Z" fill="white"/>
<path opacity="0.36" d="M145.029 304.873L126.807 305.586V300.445L145.029 299.77V304.873Z" fill="white"/>
<path opacity="0.36" d="M145.029 311.963L126.807 312.729V307.589L145.029 306.86V311.963Z" fill="white"/>
<path opacity="0.36" d="M145.029 319.054L126.807 319.873V314.732L145.029 313.951V319.054Z" fill="white"/>
<path opacity="0.5" d="M198.584 136.325L148.883 134.821V129.725L198.584 131.334V136.325Z" fill="url(#paint7_linear_116_1956)"/>
<path opacity="0.6" d="M235.847 280.835L165.146 282.99V277.927L235.847 275.921V280.835Z" fill="white"/>
<path opacity="0.5" d="M247.439 287.276L177.441 289.61V284.576L247.439 282.386V287.276Z" fill="url(#paint8_linear_116_1956)"/>
<path opacity="0.5" d="M247.439 294.071L177.441 296.607V291.571L247.439 289.181V294.071Z" fill="url(#paint9_linear_116_1956)"/>
<path opacity="0.5" d="M277.604 299.684L209.42 302.352V297.383L277.604 294.856V299.684Z" fill="url(#paint10_linear_116_1956)"/>
<path d="M277.604 306.391L209.42 309.257V304.288L277.604 301.563V306.391Z" fill="url(#paint11_linear_116_1956)"/>
<path opacity="0.6" d="M277.604 313.098L209.42 316.16V311.191L277.604 308.27V313.098Z" fill="white"/>
<path opacity="0.5" d="M198.584 275.035L148.883 276.406V271.311L198.584 270.044V275.035Z" fill="url(#paint12_linear_116_1956)"/>
<path opacity="0.5" d="M235.847 205.73L165.146 205.635V200.574L235.847 200.816V205.73Z" fill="url(#paint13_linear_116_1956)"/>
<path opacity="0.6" d="M247.439 212.54L177.441 212.648V207.612L247.439 207.651V212.54Z" fill="white"/>
<path opacity="0.5" d="M247.439 219.334L177.441 219.645V214.609L247.439 214.444V219.334Z" fill="url(#paint14_linear_116_1956)"/>
<path opacity="0.5" d="M247.439 226.129L177.441 226.642V221.606L247.439 221.239V226.129Z" fill="url(#paint15_linear_116_1956)"/>
<path opacity="0.5" d="M193.863 233.47L149.006 233.929V228.834L193.863 228.469V233.47Z" fill="url(#paint16_linear_116_1956)"/>
<path opacity="0.6" d="M214.879 240.144L165.146 240.795V235.734L214.879 235.185V240.144Z" fill="white"/>
<path d="M240.716 246.619L177.441 247.631V242.596L240.716 241.714V246.619Z" fill="url(#paint17_linear_116_1956)"/>
<path opacity="0.5" d="M240.716 253.432L177.441 254.628V249.593L240.716 248.528V253.432Z" fill="url(#paint18_linear_116_1956)"/>
<path opacity="0.5" d="M254.744 259.941L192.23 261.303V256.297L254.744 255.066V259.941Z" fill="url(#paint19_linear_116_1956)"/>
<path opacity="0.5" d="M254.744 266.713L192.23 268.257V263.25L254.744 261.838V266.713Z" fill="url(#paint20_linear_116_1956)"/>
<path d="M198.584 198.745L148.883 198.534V193.438L198.584 193.752V198.745Z" fill="url(#paint21_linear_116_1956)"/>
<path d="M107.879 147.088L62.7246 145.967V138.541L107.879 139.796V147.088Z" fill="white"/>
<path opacity="0.6" d="M51.0449 145.677L59.55 145.889V138.453L51.0449 138.217V145.677Z" fill="white"/>
<path opacity="0.6" d="M107.879 157.573L62.7246 156.643V149.216L107.879 150.281V157.573Z" fill="white"/>
<path opacity="0.6" d="M51.0449 156.402L59.55 156.577V149.142L51.0449 148.941V156.402Z" fill="white"/>
<path opacity="0.6" d="M107.879 168.059L62.7246 167.317V159.891L107.879 160.766V168.059Z" fill="white"/>
<path opacity="0.6" d="M51.0449 167.126L59.55 167.265V159.83L51.0449 159.665V167.126Z" fill="white"/>
<path d="M107.879 242.483L28.9902 243.547V236.022L107.879 235.188V242.483Z" fill="white"/>
<path opacity="0.6" d="M107.879 253.879L62.7246 254.695V247.269L107.879 246.585V253.879Z" fill="white"/>
<path opacity="0.6" d="M51.0449 254.906L59.55 254.752V247.316L51.0449 247.446V254.906Z" fill="white"/>
<path opacity="0.6" d="M107.879 264.364L62.7246 265.371V257.944L107.879 257.07V264.364Z" fill="white"/>
<path opacity="0.6" d="M51.0449 265.631L59.55 265.441V258.005L51.0449 258.17V265.631Z" fill="white"/>
<path opacity="0.6" d="M107.879 274.849L62.7246 276.045V268.619L107.879 267.555V274.849Z" fill="white"/>
<path opacity="0.6" d="M51.0449 276.355L59.55 276.129V268.694L51.0449 268.894V276.355Z" fill="white"/>
<path d="M107.879 178.615L28.9902 177.654V170.13L107.879 171.321V178.615Z" fill="white"/>
<path opacity="0.6" d="M107.879 190.011L62.7246 189.668V182.241L107.879 182.717V190.011Z" fill="white"/>
<path opacity="0.6" d="M51.0449 189.579L59.55 189.644V182.209L51.0449 182.119V189.579Z" fill="white"/>
<path opacity="0.6" d="M107.879 200.496L62.7246 200.343V192.917L107.879 193.202V200.496Z" fill="white"/>
<path opacity="0.6" d="M51.0449 200.303L59.55 200.333V192.897L51.0449 192.844V200.303Z" fill="white"/>
<path opacity="0.6" d="M107.879 221.602L62.7246 221.832V214.406L107.879 214.307V221.602Z" fill="white"/>
<path opacity="0.6" d="M51.0449 221.892L59.55 221.849V214.413L51.0449 214.431V221.892Z" fill="white"/>
<path opacity="0.6" d="M107.879 232.087L62.7246 232.508V225.081L107.879 224.792V232.087Z" fill="white"/>
<path opacity="0.6" d="M51.0449 232.616L59.55 232.537V225.102L51.0449 225.155V232.616Z" fill="white"/>
<path opacity="0.6" d="M107.879 210.981L62.7246 211.019V203.592L107.879 203.687V210.981Z" fill="white"/>
<path opacity="0.6" d="M51.0449 211.028L59.55 211.022V203.586L51.0449 203.568V211.028Z" fill="white"/>
<path d="M107.879 285.33L28.9902 287.753V280.227L107.879 278.037V285.33Z" fill="white"/>
<path opacity="0.6" d="M107.879 296.726L62.7246 298.32V290.893L107.879 289.433V296.726Z" fill="white"/>
<path opacity="0.6" d="M51.0449 298.732L59.55 298.432V290.996L51.0449 291.271V298.732Z" fill="white"/>
<path opacity="0.6" d="M107.879 307.211L62.7246 308.995V301.569L107.879 299.918V307.211Z" fill="white"/>
<path opacity="0.6" d="M51.0449 309.456L59.55 309.12V301.685L51.0449 301.996V309.456Z" fill="white"/>
<path opacity="0.6" d="M107.879 317.696L62.7246 319.671V312.244L107.879 310.402V317.696Z" fill="white"/>
<path opacity="0.6" d="M51.0449 320.181L59.55 319.809V312.374L51.0449 312.72V320.181Z" fill="white"/>
<path opacity="0.6" d="M117.464 317.314L115.727 317.39V128.653L117.464 128.708V317.314Z" fill="white"/>
<path opacity="0.6" d="M333.018 326.088C256.424 327.691 239.2 338.632 217.436 325.521C187.529 307.507 201.149 275.46 172.011 258.652C135.378 237.518 93.1428 276.223 74.0239 257.354C54.9838 238.562 90.9508 194.336 70.1303 145.038C61.7753 125.254 47.5473 112.405 37.7196 105.038L17.8933 104.179C10.2844 103.849 4.06055 108.889 4.06055 115.415V350.625C4.06055 357.15 10.2844 362.088 17.8933 361.635L369.75 340.648C375.337 340.315 379.859 335.529 379.859 329.979V326.422C369.314 326.048 352.978 325.67 333.018 326.088Z" fill="#D9D9D9"/>
<path d="M323.43 165.919C342.26 183.007 366.24 187.519 378.316 176.66L378.324 176.666L378.37 176.612C378.863 176.166 379.345 175.705 379.795 175.207C380.363 174.578 380.89 173.918 381.367 173.237L395.971 156.785L399.005 153.366L377.144 134.129C373.966 129.184 369.92 124.374 365.085 119.982C359.646 115.049 353.779 111.167 347.897 108.392L326.015 89.1426L308.913 110.492C308.851 110.562 308.781 110.626 308.719 110.694C308.074 111.4 307.491 112.148 306.965 112.929C306.125 114.164 305.427 115.482 304.861 116.876C299.39 130.36 306.634 150.67 323.43 165.919Z" fill="url(#paint22_linear_116_1956)"/>
<path opacity="0.3" d="M323.294 166.062C328.383 170.901 334.15 174.99 340.407 177.757C346.827 180.597 355.896 183.184 363 182.589C374.812 181.6 380.385 174.108 387.603 166.066C390.385 162.968 393.373 160.039 395.986 156.791C389.127 155.917 380.226 158.162 373.794 160.427C368.236 162.383 362.947 165.567 357.054 166.442C344.065 168.372 330.19 160.311 323.695 149.255C319.726 142.5 321.306 133.735 316.208 127.479C312.914 123.435 307.818 121.221 304.862 116.875C305.391 117.654 303.548 123.18 303.416 124.355C303.113 127.058 303.13 129.78 303.509 132.476C304.392 138.771 307.079 144.711 310.395 150.081C313.909 155.773 318.271 161.283 323.294 166.062Z" fill="url(#paint23_linear_116_1956)"/>
<path d="M309.123 74.3265L385.032 91.3193L417.688 161.952L419.784 163.643L419.054 164.548L340.131 146.9L306.195 73.4582L306.925 72.5527L309.123 74.3265Z" fill="url(#paint24_linear_116_1956)"/>
<path d="M386.037 90.0733L420.002 163.539L341.049 145.865L307.084 72.3995L386.037 90.0733Z" fill="url(#paint25_linear_116_1956)"/>
<path d="M389.252 200.041C389.848 200.134 390.422 199.749 390.552 199.151L399.123 160.088C399.191 159.774 399.127 159.445 398.943 159.182L366.358 112.432C365.994 111.91 365.278 111.782 364.756 112.147C364.235 112.511 364.107 113.228 364.471 113.749L396.769 160.086L388.305 198.657C388.169 199.279 388.562 199.893 389.182 200.028C389.204 200.033 389.228 200.037 389.252 200.041Z" fill="url(#paint26_linear_116_1956)"/>
<path d="M391.884 198.195L391.195 196.669C390.932 196.091 390.376 195.703 389.741 195.657C389.107 195.611 388.501 195.915 388.157 196.451L387.337 197.903C387.113 198.253 387.083 198.659 387.047 199.072L385.928 211.804C385.904 212.077 386.949 212.392 388.407 212.52C389.865 212.648 390.948 212.52 390.972 212.247L392.094 199.479C392.133 199.041 392.069 198.598 391.884 198.195Z" fill="url(#paint27_linear_116_1956)"/>
<path d="M311.809 259.73C308.181 255.854 318.224 241.293 323.601 234.913C328.297 229.339 333.126 223.611 339.052 224.336C344.257 224.972 349.321 230.465 349.625 235.727C350.442 249.886 316.967 265.238 311.809 259.73Z" fill="url(#paint28_linear_116_1956)"/>
<path d="M355.374 409.348C356.058 409.904 356.182 411.29 356.264 412.197C356.301 412.601 356.319 412.805 356.274 412.948C355.945 413.992 353.922 414.102 350.749 414.426C345.736 414.939 344.244 415.333 343.852 414.586C343.485 413.888 344.374 412.741 344.475 412.615C345.013 411.935 345.674 411.688 346.952 411.268C349.317 410.489 350.916 410.062 351.399 409.934C354.421 409.128 354.925 408.984 355.374 409.348Z" fill="url(#paint29_linear_116_1956)"/>
<path d="M352.393 404.767L351.891 410.483C352.033 410.759 353.73 411.586 355.08 410.877L356.368 405.259L352.393 404.767Z" fill="#D8DEE8"/>
<path d="M315.62 408.614C316.439 409.518 316.625 411.183 315.913 412.004C315.213 412.811 314.161 412.206 311.177 412.295C307.98 412.39 307.146 413.146 304.974 412.546C304.097 412.304 302.547 411.715 302.577 411.088C302.597 410.646 303.387 410.419 306.021 409.536C309.762 408.282 309.746 408.214 310.539 408.082C312.535 407.751 314.538 407.42 315.62 408.614Z" fill="url(#paint30_linear_116_1956)"/>
<path d="M313.572 403.398L311.969 408.733C312.091 409.02 313.719 409.974 315.118 409.369L317.499 404.191L313.572 403.398Z" fill="#D8DEE8"/>
<path d="M327.815 286.555C327.585 304.484 326.363 324.644 323.428 346.547C320.529 368.193 316.464 387.752 312.031 404.952C314.076 405.502 316.123 406.053 318.167 406.604C323.357 401.763 329.902 394.143 333.061 383.374C335.021 376.69 334.368 373.256 335.611 365.035C337.591 351.945 341.602 345.088 345.747 334.533C349.471 325.049 353.874 311.128 356.236 292.522C346.762 290.532 337.288 288.543 327.815 286.555Z" fill="url(#paint31_linear_116_1956)"/>
<path d="M346.277 284.844C347.529 307.647 348.559 330.875 349.339 354.514C349.924 372.254 350.354 389.767 350.641 407.051C352.73 407.31 354.82 407.567 356.909 407.826C358.927 404.066 361.61 398.316 363.446 390.947C365.677 381.998 365.161 376.683 366.139 367.408C367.238 357.005 368.832 354.739 371.656 341.615C377.389 314.981 380.256 301.664 373.86 293.381C371.784 290.69 365.276 283.944 346.277 284.844Z" fill="url(#paint32_linear_116_1956)"/>
<path d="M376.727 227.533C371.834 226.156 364.663 224.546 355.881 224.049C343.356 223.341 337.094 222.986 332.655 225.972C322.405 232.864 330.341 248.772 326.144 288.205C325.545 293.837 325.41 299.508 324.976 305.155C324.258 314.504 324.093 315.011 324.744 315.96C328.822 321.901 344.034 312.94 366.33 316.482C378.806 318.464 384.464 323.03 387.882 319.736C391.867 315.896 388.448 305.565 385.505 296.673C382.127 286.466 380.039 286.335 378.122 278.647C376.118 270.612 377.33 266.475 377.642 253.805C377.794 247.742 377.763 238.72 376.727 227.533Z" fill="url(#paint33_linear_116_1956)"/>
<g opacity="0.3">
<path d="M346.407 301.564C352.234 301.108 356.015 304.404 361.045 301.835C367.944 298.313 370.16 287.352 369.72 279.595C369.053 267.809 362.325 264.703 363.486 257.085C364.113 252.965 367.052 247.495 377.608 241.907C377.749 246.61 377.723 250.62 377.644 253.805C377.332 266.475 376.119 270.612 378.124 278.647C380.041 286.333 382.129 286.466 385.507 296.673C388.449 305.565 391.869 315.894 387.883 319.736C384.465 323.03 378.807 318.464 366.331 316.482C347.119 313.429 333.175 319.652 327.074 317.634C334.447 305.443 341.134 301.976 346.407 301.564Z" fill="url(#paint34_linear_116_1956)"/>
</g>
<path d="M368.778 228.342C372.94 224.92 381.309 228.793 383.545 229.828C396.02 235.602 407.221 251.158 404.446 267.599C404.03 270.065 402.099 281.598 392.339 287.187C383.53 292.229 371.638 290.932 362.109 283.791C360.808 282.634 359.504 281.479 358.202 280.322C356.921 278.936 355.64 277.551 354.359 276.165C356.373 274.489 359.796 272.072 364.6 270.52C370.936 268.474 375.548 272.145 378.488 269.354C380.517 267.428 380.521 264.027 380.02 261.966C379.01 257.812 375.349 256.643 372.294 253.693C365.117 246.766 363.795 232.438 368.778 228.342Z" fill="url(#paint35_linear_116_1956)"/>
<path d="M308.967 282.013L364.754 281.18L349.92 288.344L308.824 285.652L308.967 282.013Z" fill="url(#paint36_linear_116_1956)"/>
<path d="M366.724 282.664C366.724 283.709 366.07 284.641 365.089 284.998L347.263 291.989L347.182 287.142L364.753 281.18C365.74 280.896 366.724 281.637 366.724 282.664Z" fill="url(#paint37_linear_116_1956)"/>
<path d="M358.131 279.36C358.473 279.284 356.464 275.276 354.886 275.738C353.307 276.201 345.588 280.676 344.887 282.52C344.186 284.362 344.186 284.362 344.186 284.362C344.186 284.362 347.553 284.625 349.641 283.923C351.729 283.223 355.348 279.982 358.131 279.36Z" fill="white"/>
<path d="M345.699 253.133L349.632 288.953C349.767 290.189 348.037 292.031 346.796 291.971L289.11 288.428C288.161 288.384 287.372 287.685 287.212 286.75L279.971 252.153C279.756 250.894 282.018 249.594 283.294 249.63L343.747 251.331C344.756 251.36 345.589 252.129 345.699 253.133Z" fill="url(#paint38_linear_116_1956)"/>
<path d="M344.382 254.178L348.314 289.998C348.449 291.234 347.449 292.298 346.208 292.241L287.792 289.474C286.844 289.429 286.055 288.73 285.894 287.795L279.926 253.041C279.711 251.781 280.7 250.639 281.975 250.675L342.428 252.376C343.438 252.404 344.272 253.173 344.382 254.178Z" fill="url(#paint39_linear_116_1956)"/>
<path opacity="0.3" d="M310.081 281.08C315.181 278.917 313.381 274.793 319.405 269.654C327.351 262.874 335.45 265.815 338.286 260.559C339.168 258.922 339.59 256.375 338.052 252.254L342.43 252.377C343.439 252.406 344.273 253.174 344.383 254.179L348.315 290C348.451 291.235 347.451 292.3 346.21 292.242L287.793 289.475C286.845 289.43 286.056 288.732 285.896 287.796L285.072 283C286.845 282.013 288.963 281.116 291.434 280.614C300.003 278.876 304.207 283.571 310.081 281.08Z" fill="url(#paint40_linear_116_1956)"/>
<path d="M284.112 284.464C284.016 284.176 284.219 283.879 284.522 283.864C285.757 283.801 288.62 283.775 290.2 284.744C292.254 286.002 294.91 288.299 292.673 289.457L290.585 290.54C290.489 290.589 290.384 290.605 290.279 290.581C289.537 290.418 286.415 289.725 286.073 289.552C285.763 289.395 284.572 285.861 284.112 284.464Z" fill="white"/>
<path d="M354.947 210.358C354.916 214.074 355.33 217.019 355.722 219.037C356.171 221.349 356.495 221.947 356.908 222.431C357.53 223.161 358.472 223.773 363.792 225.093C366.687 225.811 367.06 225.792 367.124 226.079C367.436 227.481 359.54 232.261 351.383 231.109C346.391 230.404 341.848 227.554 342.127 226.058C342.408 224.552 347.394 225.36 348.882 222.635C349.916 220.739 348.757 218.048 347.387 215.821C348.712 213.334 353.62 212.846 354.947 210.358Z" fill="white"/>
<path d="M345.681 211.827C344.503 210.262 344.43 207.528 345.788 205.8C346.956 204.313 348.794 204.1 349.896 203.974C353.085 203.605 357.109 204.938 358.509 207.874C359.338 209.615 357.545 213.231 357.264 213.881C356.946 214.615 356.369 214.868 355.836 215.424C355.096 216.194 353.938 217.421 352.049 219.47C351.902 218.865 351.679 218.117 351.324 217.305C351.187 216.993 350.639 215.772 349.809 214.761C348.147 212.733 346.799 213.311 345.681 211.827Z" fill="url(#paint41_linear_116_1956)"/>
<path d="M354.743 217.746C354.743 217.746 352.646 221.188 348.472 220.916C344.734 220.672 344.188 212.287 346.574 210.507C347.371 209.914 348.965 209.667 350.263 210.03C351.028 210.245 351.288 210.564 352.547 210.889C353.708 211.191 354.036 211.062 354.387 211.356C354.825 211.725 355.146 212.63 354.413 215.082C355.127 214.359 355.983 214.083 356.589 214.368C356.686 214.414 356.943 214.588 357.087 214.853C357.609 215.814 356.735 217.036 354.743 217.746Z" fill="white"/>
<path d="M354.555 210.857C354.376 210.99 354.927 211.664 354.967 212.615C355.047 214.464 353.176 216.683 351.27 216.871C350.142 216.982 349.831 216.301 347.967 216.105C346.813 215.983 345.853 216.13 345.248 216.263C344.662 218.291 345.214 220.311 346.568 221.249C348.025 222.259 349.889 221.646 350.668 221.391C351.189 221.22 352.858 220.674 353.731 219.143C354.64 217.546 353.747 216.584 354.79 215.504C355.316 214.96 356.007 214.724 356.681 213.67C356.863 213.383 356.985 213.13 357.06 212.959C356.094 211.936 354.817 210.662 354.555 210.857Z" fill="url(#paint42_linear_116_1956)"/>
<path d="M346.602 217.013C346.602 217.013 347.408 217.436 348.804 217.357C348.872 217.352 348.947 217.373 348.956 217.407C348.988 217.54 348.092 218.133 347.267 217.901C346.682 217.736 346.227 217.181 346.306 217.04C346.34 216.982 346.472 216.991 346.602 217.013Z" fill="white"/>
<path d="M54.7385 231.739C53.7473 232.114 38.6305 238.128 35.523 253.913C35.2719 255.189 32.8435 268.75 42.0367 278.331C52.3444 289.074 72.1929 288.807 80.0723 279.827C81.9091 277.732 82.8796 275.411 83.422 273.461L81.3459 267.943C78.8136 264.883 75.3643 264.159 73.523 263.704C68.9829 262.584 65.5544 264.608 62.9537 262.416C61.5152 261.205 61.2284 259.461 60.9742 257.901C60.1048 252.593 63.0994 249.327 63.3163 246.053C63.4798 243.605 64.3358 238.244 61.1436 234.748C59.121 232.536 56.3197 231.932 54.7385 231.739Z" fill="url(#paint43_linear_116_1956)"/>
<path d="M48.8472 407.655C48.6704 406.682 45.5347 405.804 43.9817 407.105C43.2104 407.751 42.6799 409.061 43.1257 409.653C43.2877 409.869 42.6234 410.246 43.2595 410.254C45.3727 410.279 49.0226 408.62 48.8472 407.655Z" fill="url(#paint44_linear_116_1956)"/>
<path d="M45.5603 408.009L42.334 407.552C43.829 405.752 43.5511 400.018 43.5511 400.018L46.9811 400.784C46.9811 400.784 46.5902 402.357 45.9259 404.68C45.7 405.475 45.5975 406.718 45.5603 408.009Z" fill="url(#paint45_linear_116_1956)"/>
<path d="M45.8473 407.61C45.8473 407.61 41.9641 406.715 41.5435 407.485C41.1229 408.255 40.7975 410.319 43.2614 410.254C45.7254 410.188 46.0657 408.264 45.8473 407.61Z" fill="url(#paint46_linear_116_1956)"/>
<path d="M93.1101 411.299C92.7995 410.362 89.5702 409.93 88.2148 411.436C87.5416 412.184 87.1998 413.554 87.7244 414.078C87.9146 414.268 87.3098 414.737 87.9414 414.655C90.0368 414.384 93.4192 412.23 93.1101 411.299Z" fill="url(#paint47_linear_116_1956)"/>
<path d="M89.9041 412.109H86.6465C87.874 410.117 86.7981 404.48 86.7981 404.48L90.3023 404.758C90.3023 404.758 90.1359 406.372 89.8015 408.762C89.6871 409.58 89.7614 410.826 89.9041 412.109Z" fill="url(#paint48_linear_116_1956)"/>
<path d="M98.3493 288.849C99.8577 293.836 102.014 301.883 103.401 311.98C107.358 340.779 98.9467 341.698 100.518 373.611C101.018 383.797 91.696 407.288 90.8742 407.806C90.4759 407.845 90.0449 407.87 89.5842 407.857C88.7728 407.833 87.63 407.708 86.3014 407.31C84.8242 407.056 79.5009 392.627 80.7344 384.049C81.6082 377.976 81.3541 371.461 80.8488 358.429C80.7671 356.318 75.3665 317.347 75.3665 317.347C73.7244 331.772 71.8355 344.028 70.1978 353.53C64.9355 384.06 47.8288 402.539 46.9357 402.836C46.7588 402.907 45.1538 403.49 43.8416 402.625C43.2575 402.24 43.0584 401.743 43.0584 401.743C42.6007 401.385 43.1936 371.262 48.4114 348.592C55.9861 315.688 52.6869 307.989 55.087 293.292C57.1631 280.573 98.3493 288.849 98.3493 288.849Z" fill="url(#paint49_linear_116_1956)"/>
<path d="M100.378 293.82C95.8287 296.155 84.1151 300.339 70.1531 298.261C63.9634 297.339 58.979 295.314 55.4063 293.46C55.2978 293.405 55.1879 293.351 55.0853 293.296C58.7115 282.323 55.87 276.452 54.5295 271.04C52.6154 263.325 52.5887 263.909 51.0119 257.776C48.4156 247.66 47.9906 237.326 49.7739 235.215C54.5845 229.513 63.256 229.306 67.7545 229.17C72.782 229.022 84.344 227.249 90.709 232.977C90.8175 233.076 89.5142 233.774 90.1576 234.527C90.7521 235.226 92.797 237.674 94.6517 240.981C95.9936 243.376 97.2093 246.17 98.4309 250.327C100.586 257.666 101.207 263.918 101.413 266.642C101.479 267.543 101.54 268.416 101.593 269.256C102.439 282.775 101.364 289.303 100.378 293.82Z" fill="url(#paint50_linear_116_1956)"/>
<path d="M90.1318 411.675C90.1318 411.675 86.1609 411.333 85.8533 412.154C85.5457 412.976 85.5115 415.065 87.9413 414.653C90.3726 414.244 90.4409 412.292 90.1318 411.675Z" fill="url(#paint51_linear_116_1956)"/>
<path d="M82.2277 222.739C83.5979 220.002 82.6959 217.048 82.4937 216.41C81.6511 213.74 81.3791 213.344 80.8352 212.804L80.0699 212.101C80.0699 212.101 80.0238 212.071 79.9748 212.042C79.4561 211.735 77.5673 211.31 77.166 211.319C75.885 211.344 73.6097 216.104 72.6155 223.261C72.513 223.521 72.4104 223.784 72.3109 224.049C71.6852 225.701 71.1621 227.319 70.7267 228.892C62.1548 230.224 61.0298 231.32 61.0313 231.907C61.0357 233.142 66.0484 234.222 69.7815 234.504C77.9224 235.121 86.056 232.415 85.9133 230.915C85.8509 230.263 84.1894 229.521 77.2968 229.104C77.377 227.962 77.4588 226.821 77.539 225.679C78.0829 225.515 81.2172 224.755 82.2277 222.739Z" fill="url(#paint52_linear_116_1956)"/>
<path d="M83.0061 210.58C82.5752 212.775 81.089 214.919 80.4901 215.194C80.4129 215.229 79.9715 215.458 79.5271 215.909C79.4662 215.97 79.4097 216.044 79.3518 216.144C78.6043 217.434 80.4887 219.488 79.9447 220.024C79.5509 220.414 78.1718 219.525 77.9192 219.879C77.6814 220.212 78.7766 221.208 78.5032 221.608C78.2966 221.91 77.5907 221.461 77.0111 221.874C76.7228 222.079 76.754 222.293 76.3513 223.014C76.1239 223.422 75.8297 223.86 75.6231 224.095C74.6155 225.237 72.3774 225.294 72.0639 224.697C71.9762 224.531 72.098 224.43 72.0743 223.924C72.0743 223.924 72.052 223.456 71.841 222.879C71.5393 222.055 70.5688 221.319 69.637 220.331C67.9117 218.5 67.604 217.164 67.5208 216.716C67.4911 216.557 67.4762 216.438 67.4658 216.352C67.2563 214.633 67.714 212.256 68.7231 210.935C70.4143 208.721 72.9377 210.415 75.6543 208.424C78.79 206.127 77.9816 202.003 79.4722 201.851C81.1113 201.686 83.8027 206.524 83.0061 210.58Z" fill="#26264F"/>
<path d="M79.2552 219.357C78.8599 218.514 77.781 219.025 77.5907 219.981C77.4005 220.937 78.1347 222.11 79.0694 222.095C80.0057 222.079 79.7872 220.491 79.2552 219.357Z" fill="url(#paint53_linear_116_1956)"/>
<path d="M56.689 286.498C56.6786 286.498 56.6667 286.498 56.6563 286.497C56.4958 286.479 56.3799 286.333 56.3977 286.173C56.9892 280.848 55.885 276.977 54.9116 273.56C54.6723 272.723 54.4405 271.911 54.2429 271.11C53.1595 266.74 52.6854 265.051 52.1831 263.262C51.8532 262.089 51.5158 260.886 50.9898 258.864C50.9496 258.708 51.0432 258.548 51.1993 258.508C51.3568 258.463 51.5173 258.561 51.5574 258.717C52.082 260.733 52.4194 261.933 52.7478 263.105C53.2516 264.898 53.7272 266.591 54.812 270.97C55.0097 271.765 55.24 272.571 55.4763 273.401C56.4646 276.87 57.5851 280.801 56.9818 286.24C56.9639 286.388 56.8361 286.498 56.689 286.498Z" fill="url(#paint54_linear_116_1956)"/>
<path opacity="0.3" d="M100.378 293.82C95.8286 296.155 84.115 300.339 70.153 298.261C63.9633 297.339 58.9789 295.314 55.4062 293.46C57.0261 292.199 59.022 290.088 62.3212 286.497C66.3188 282.154 71.003 283.775 73.7568 285.412C75.7423 286.585 78.2018 286.617 80.214 285.504C82.2321 284.386 83.5087 282.285 83.5681 279.982C83.6008 278.923 83.5518 277.717 83.421 276.354C82.4773 266.472 96.1615 265.632 96.1615 265.632C98.0919 264.629 99.9243 266.249 101.593 269.256C102.439 282.775 101.364 289.303 100.378 293.82Z" fill="url(#paint55_linear_116_1956)"/>
<path d="M148.21 249.802C147.66 249.856 146.993 250.413 146.525 250.679C145.859 251.057 145.189 251.429 144.509 251.781C143.199 252.464 141.812 252.971 140.313 252.942C140.354 252.728 140.429 252.514 140.513 252.311C140.767 251.716 141.102 251.203 140.901 251.024C140.616 250.766 139.357 251.3 138.196 252.413C137.727 252.856 137.278 253.402 136.911 254.023C136.318 255.033 136.419 255.586 135.923 256.356C135.186 257.016 134.633 257.162 134.633 257.162V257.373L134.716 257.632C134.058 258.134 133.313 258.432 132.73 258.625C133.756 258.9 134.758 259.181 135.778 259.462L136.487 260.646C136.487 260.646 140.354 259.835 142.686 258.42C143.777 257.755 144.153 256.935 144.243 256.254C144.309 255.8 144.242 255.411 144.182 255.162C144.133 254.984 144.09 254.875 144.09 254.875C144.09 254.875 147.275 253.552 148.534 250.688C148.729 250.257 148.746 249.75 148.21 249.802Z" fill="url(#paint56_linear_116_1956)"/>
<path d="M134.719 255.971C136.538 257.244 137.513 258.973 138.018 260.076C136.68 263.216 133.649 269.046 127.373 273.342C117.082 280.386 101.993 280.623 91.4832 272.589C78.927 262.992 76.8286 244.587 82.1028 236.705C82.7107 235.798 84.7065 232.814 87.8051 232.472C89.7623 232.256 92.4254 233.064 96.6341 237.992C105.402 248.265 102.305 254.678 107.486 257.682C115.254 262.19 126.798 250.425 134.719 255.971Z" fill="url(#paint57_linear_116_1956)"/>
<path d="M265.171 58.871C261.947 57.9298 257.639 63.8504 254.059 68.7732C248.702 76.1374 242.442 84.7416 244.127 95.0735C245.786 105.239 254.498 113.155 256.979 112.023C259.103 111.055 255.021 104.217 258.147 95.0735C260.671 87.6959 264.853 87.693 267.656 80.4581C271.136 71.4822 269.137 60.0307 265.171 58.871Z" fill="url(#paint58_linear_116_1956)"/>
<path d="M263.576 105.692C246.975 109.725 236.04 116.198 229.652 120.776C226.191 123.258 224.592 124.805 223.729 127.061C218.811 139.916 244.077 159.355 246.769 161.39C247.945 158.647 249.122 155.902 250.297 153.159C247.686 138.822 243.339 134.324 239.703 132.987C238.685 132.613 236.977 132.211 237.01 131.731C237.089 130.592 246.685 132.216 255.856 128.858C265.001 125.51 274.188 117.04 272.548 111.44C272.252 110.416 270.996 107.462 263.576 105.692Z" fill="url(#paint59_linear_116_1956)"/>
<path d="M247.479 199.658C247.479 199.658 249.024 200.208 249.03 201.432C249.036 202.654 247.465 208.041 245.758 209.954C244.052 211.868 243.899 209.013 244.004 207.174C244.11 205.335 244.557 201.218 244.979 200.421C245.401 199.625 247.479 199.658 247.479 199.658Z" fill="url(#paint60_linear_116_1956)"/>
<path opacity="0.3" d="M242.515 124.487C239.499 124.428 232.432 123.864 230.549 127.36C228.98 130.275 231.729 134.697 233.42 137.415C238.018 144.808 242.481 145.563 245.626 150.105C246.843 151.863 247.946 154.319 248.296 157.826C248.964 156.269 249.631 154.714 250.298 153.158C247.687 138.822 243.34 134.323 239.704 132.986C238.686 132.611 236.978 132.21 237.011 131.73C237.09 130.591 246.685 132.214 255.856 128.857C264.192 125.805 272.536 118.503 272.709 112.993C259.511 122.465 249.574 124.626 242.515 124.487Z" fill="url(#paint61_linear_116_1956)"/>
<path d="M248.371 194.463C248.28 196.347 248.12 197.923 247.976 199.093C247.656 201.681 247.363 202.706 246.962 203.638C246.611 204.451 245.736 206.224 245.319 206.1C244.894 205.975 245.33 204.011 245.662 198.549C245.709 197.756 245.857 195.232 245.857 195.232L248.371 194.463Z" fill="url(#paint62_linear_116_1956)"/>
<path d="M273.15 106.77C263.585 112.541 257.375 119.101 253.765 123.53C249.503 128.759 243.021 136.715 240.674 148.577C239.423 154.899 240.038 160.571 241.32 171.655C242.594 182.665 244.419 191.628 245.847 197.749C246.583 198.045 247.318 198.339 248.054 198.635C250.025 195.013 252.602 189.281 253.526 181.95C255.037 169.956 250.552 166.145 252.706 157.639C254.571 150.27 259.973 145.753 270.778 136.716C279.656 129.293 287.843 124.887 290.881 115.627C291.397 114.054 291.835 112.126 290.994 110.36C289.182 106.555 282.247 105.227 273.15 106.77Z" fill="url(#paint63_linear_116_1956)"/>
<path d="M280.784 59.5579C278.301 59.0242 274.219 59.1297 270.327 56.0624C269.154 55.1391 265.003 51.8681 265.507 47.1891C265.951 43.0691 269.854 40.8553 270.332 40.5921C273.095 39.0711 275.85 39.4086 278.904 39.8264C282.865 40.3676 284.182 41.4515 286.934 42.1934C293.743 44.0296 296.047 40.1966 302.902 40.5207C311.666 40.9341 312.424 47.4092 319.796 47.5697C328.073 47.7511 329.66 39.6465 337.83 38.2742C349.172 36.3681 366.334 48.5852 365.989 62.6669C365.79 70.8013 359.736 80.1221 352.003 82.9203C347.496 84.5514 342.633 84.034 341.244 86.966C340.256 89.0535 342.477 90.6607 342.266 94.296C341.996 98.9839 337.963 102.273 337.312 102.804C331.265 107.735 317.708 105.243 308.45 98.2658C291.758 85.6858 294.284 62.4632 280.784 59.5579Z" fill="url(#paint64_linear_116_1956)"/>
<path d="M299.961 57.8852C294.337 57.1924 287.852 56.6646 280.646 56.5664C265.418 56.3598 263.237 58.2912 262.68 59.7215C261.64 62.3873 263.422 63.724 262.41 68.3718C261.805 71.1506 262.377 72.4174 261.207 75.4044C260.068 78.3141 260.962 79.8798 261.97 86.7043C263.258 95.4304 263.853 99.8656 261.412 103.383C259.717 105.828 257.819 106.034 258 107.196C258.385 109.67 266.935 108.305 277.758 113.054C280.891 114.427 283.776 116.122 286.193 117.542C291.857 120.868 292.905 122.141 295.526 123.647C303.82 128.414 316.278 128.873 322.808 123.109C325.243 120.961 327.017 117.801 326.219 116.644C325.131 115.07 320.27 118.646 315.809 116.464C312.853 115.019 313.415 112.682 309.998 109.927C305.886 106.611 303.027 108.349 300.228 106.192C295.862 102.827 297.849 94.7702 299.074 81.2625C299.579 75.6721 300.089 67.6864 299.961 57.8852Z" fill="url(#paint65_linear_116_1956)"/>
<path d="M283.479 54.7481C285.556 56.0372 288.913 57.7218 289.283 58.1797C289.654 58.6362 279.113 60.4427 272.553 57.1315C272.553 57.1315 271.536 56.5665 275.489 55.7755C276.332 55.6075 276.167 53.9676 276.054 52.2711L276.845 50.8021C276.846 50.8006 281.403 53.4576 283.479 54.7481Z" fill="url(#paint66_linear_116_1956)"/>
<path d="M278.242 49.8029C278.242 49.8029 279.056 53.2613 276.012 54.9696C273.287 56.4995 268.675 50.2267 269.537 47.8953C269.824 47.1177 270.851 46.1186 271.924 45.7826C272.679 45.5462 275.532 45.6369 276.755 48.0425C277.076 47.3393 277.649 46.9705 278.035 47.0865C278.524 47.2322 278.595 48.1228 278.612 48.325C278.667 49.0223 278.386 49.565 278.242 49.8029Z" fill="url(#paint67_linear_116_1956)"/>
<path opacity="0.3" d="M273.52 105.234C276.655 106.535 277.079 109.346 281.416 110.939C285.551 112.46 286.939 110.554 291.065 111.817C297.262 113.712 299.631 119.695 300.569 119.13C301.428 118.613 300.604 112.892 296.621 109.183C292.047 104.925 287.121 106.876 284.193 102.454C283.055 100.734 282.176 97.9862 283.169 95.872C284.516 93.0069 288.032 94.0001 289.895 91.6301C293.244 87.3718 285.409 79.6909 287.556 73.1995C288.414 70.6079 291.141 67.3607 299.94 65.187C299.821 71.6948 299.445 77.1336 299.071 81.2625C297.845 94.7702 295.859 102.827 300.225 106.192C303.024 108.349 305.883 106.613 309.995 109.927C313.412 112.682 312.85 115.019 315.806 116.464C320.267 118.646 325.128 115.07 326.216 116.644C327.014 117.801 325.24 120.959 322.805 123.109C316.275 128.873 303.817 128.414 295.523 123.647C292.9 122.14 291.852 120.868 286.19 117.542C283.772 116.121 280.888 114.427 277.755 113.054C270.16 109.722 263.688 109.399 260.369 108.648C266.959 104.252 270.974 104.179 273.52 105.234Z" fill="url(#paint68_linear_116_1956)"/>
<path d="M243.253 109.649L283.038 111.586C283.585 111.613 284.086 111.906 284.376 112.371L285.477 114.139C286.025 115.019 285.367 116.154 284.331 116.115L242.189 114.509L243.253 109.649Z" fill="url(#paint69_linear_116_1956)"/>
<path d="M206.73 87.6588L247.832 88.4558C249.047 88.4796 250.162 89.1427 250.762 90.1998L264.996 115.254L221.587 113.524C220.395 113.476 219.309 112.831 218.696 111.806L205.509 89.7657C204.947 88.8275 205.636 87.638 206.73 87.6588Z" fill="url(#paint70_linear_116_1956)"/>
<path opacity="0.3" d="M250.763 90.1999C250.163 89.1413 249.048 88.4796 247.832 88.4558L246.932 88.438C246.798 89.7657 246.391 90.979 245.578 91.9603C243.044 95.0201 238.832 93.1334 235.694 96.3716C232.246 99.9296 235.431 104.166 232.348 107.477C229.104 110.962 223.858 108.123 217.826 110.355L218.694 111.806C219.306 112.831 220.394 113.476 221.585 113.524L264.994 115.254L250.763 90.1999Z" fill="url(#paint71_linear_116_1956)"/>
<path d="M276.521 109.67C276.072 108.485 275.625 107.301 275.176 106.116C280.13 104.757 286.983 102.749 294.012 100.236C295.75 99.6143 296.384 98.8129 296.849 98.1959C300.453 93.4143 291.282 84.9796 291.447 74.0336C291.562 66.4464 296.158 57.7678 300.209 57.6682C308.444 57.4675 326.601 92.4271 311.309 107.347C303.718 114.753 289.538 115.612 276.521 109.67Z" fill="url(#paint72_linear_116_1956)"/>
<path d="M275.175 106.116C272.064 104.463 268.34 106.158 268.101 106.271C267.417 106.593 266.423 107.169 265.417 108.196C265.304 108.351 263.954 110.221 264.445 110.822C264.839 111.302 266.365 110.904 268.199 109.763C268.967 109.655 270.111 109.557 271.483 109.683C274.001 109.915 275.154 110.71 276.068 110.023C276.736 109.521 276.965 108.458 276.725 107.667C276.467 106.818 275.702 106.396 275.175 106.116Z" fill="url(#paint73_linear_116_1956)"/>
<path d="M174.119 0.0123554C189.722 0.491111 202.825 10.0216 205.378 22.0857C205.381 22.102 205.384 22.1169 205.389 22.1332C205.527 22.7934 205.634 23.461 205.707 24.136C205.711 24.1806 205.717 24.2252 205.722 24.2698C205.754 24.585 205.78 24.9017 205.797 25.2199C205.8 25.2779 205.803 25.3358 205.806 25.3938C205.821 25.718 205.832 26.0451 205.832 26.3722C205.832 40.3914 191.529 51.0162 174.121 50.1137C173.657 50.0899 173.198 50.0557 172.74 50.017C172.696 50.0126 172.651 50.0096 172.605 50.0066C172.171 49.968 171.742 49.9204 171.312 49.8683C171.245 49.8594 171.178 49.852 171.111 49.8431C170.697 49.7895 170.285 49.7301 169.875 49.6632C169.798 49.6513 169.72 49.6379 169.643 49.626C169.242 49.5591 168.842 49.4862 168.445 49.4074C168.365 49.3911 168.285 49.3747 168.205 49.3584C167.811 49.2766 167.418 49.1918 167.029 49.0982C166.953 49.0803 166.879 49.061 166.803 49.0432C166.417 48.948 166.033 48.8499 165.653 48.7443C165.585 48.725 165.518 48.7056 165.449 48.6863C165.108 48.5897 164.767 48.4871 164.43 48.3815C164.344 48.3548 164.258 48.3295 164.173 48.3012C163.831 48.1912 163.492 48.0752 163.156 47.9563C163.083 47.931 163.009 47.9072 162.936 47.882C162.938 47.8805 162.938 47.8805 162.939 47.879C151.367 43.7025 143.23 34.3028 143.23 23.791C143.233 10.1331 156.962 -0.513978 174.119 0.0123554Z" fill="url(#paint74_linear_116_1956)"/>
<path d="M139.93 23.7881C139.93 37.443 153.658 49.2231 170.817 50.1122C188.227 51.0132 202.528 40.3899 202.528 26.3707C202.528 12.3515 188.225 0.54761 170.817 0.0123554C153.658 -0.513978 139.93 10.1331 139.93 23.7881Z" fill="url(#paint75_linear_116_1956)"/>
<g opacity="0.3">
<path d="M163.242 43.3605C166.999 36.1598 163.2 29.0915 168.283 24.5344C173.468 19.8851 180.242 24.6831 187.573 21.0002C190.42 19.5699 193.593 16.739 195.957 10.7427C200.074 15.1526 202.527 20.5809 202.527 26.3721C202.527 40.3913 188.225 51.0161 170.817 50.1136C166.864 49.9084 163.095 49.1264 159.637 47.8789C161.34 46.3981 162.469 44.8414 163.242 43.3605Z" fill="url(#paint76_linear_116_1956)"/>
</g>
<path d="M105.849 40.4538C123.21 40.9876 137.79 51.5915 140.63 65.0145C140.633 65.0324 140.638 65.0502 140.641 65.0681C140.794 65.8026 140.913 66.546 140.995 67.2968C141 67.3459 141.006 67.3964 141.011 67.4455C141.047 67.7964 141.075 68.1487 141.094 68.5026C141.097 68.5665 141.1 68.6305 141.103 68.6959C141.121 69.0572 141.131 69.42 141.131 69.7842C141.131 85.3839 125.218 97.2042 105.846 96.202C105.331 96.1753 104.82 96.1381 104.31 96.0935C104.259 96.089 104.21 96.0861 104.16 96.0816C103.678 96.0385 103.198 95.9849 102.721 95.927C102.647 95.918 102.573 95.9091 102.498 95.9002C102.038 95.8407 101.578 95.7738 101.124 95.701C101.037 95.6876 100.951 95.6727 100.866 95.6593C100.419 95.585 99.9748 95.5032 99.5334 95.4155C99.4442 95.3977 99.3551 95.3783 99.2659 95.3605C98.8275 95.2698 98.3906 95.1746 97.9581 95.072C97.8749 95.0527 97.7917 95.0304 97.707 95.0096C97.2775 94.904 96.8495 94.794 96.4274 94.6766C96.3516 94.6557 96.2758 94.6334 96.2 94.6111C95.8196 94.5026 95.4406 94.3896 95.0661 94.2721C94.971 94.2424 94.8744 94.2141 94.7808 94.1829C94.4004 94.061 94.0244 93.9317 93.6499 93.7978C93.5696 93.7696 93.4864 93.7443 93.4061 93.7146C93.4076 93.7131 93.4076 93.7131 93.4091 93.7116C80.5319 89.0638 71.4785 78.6055 71.4785 66.9102C71.4815 51.7149 86.7573 39.8665 105.849 40.4538Z" fill="url(#paint77_linear_116_1956)"/>
<path d="M67.8066 66.9088C67.8066 82.1026 83.0824 95.2104 102.175 96.1991C121.546 97.2027 137.459 85.381 137.459 69.7813C137.459 54.1816 121.546 41.0486 102.175 40.4523C83.0824 39.8665 67.8066 51.715 67.8066 66.9088Z" fill="url(#paint78_linear_116_1956)"/>
<g opacity="0.3">
<path d="M93.7469 88.6862C97.9273 80.6737 93.7008 72.8085 99.357 67.7384C105.128 62.5658 112.662 67.9034 120.821 63.8058C123.988 62.2149 127.519 59.0658 130.149 52.3915C134.729 57.2995 137.459 63.3374 137.459 69.7813C137.459 85.381 121.546 97.2027 102.175 96.1991C97.7757 95.9716 93.5834 95.1003 89.7344 93.7131C91.6307 92.0642 92.8879 90.3336 93.7469 88.6862Z" fill="url(#paint79_linear_116_1956)"/>
</g>
<path d="M168.343 93.5421C183.945 94.0209 197.048 103.551 199.601 115.615C199.604 115.632 199.607 115.647 199.612 115.663C199.75 116.323 199.857 116.991 199.93 117.666C199.934 117.71 199.94 117.755 199.945 117.8C199.977 118.115 200.003 118.431 200.021 118.75C200.024 118.808 200.026 118.866 200.029 118.924C200.044 119.249 200.055 119.575 200.055 119.902C200.055 133.921 185.752 144.546 168.344 143.643C167.88 143.62 167.421 143.585 166.963 143.547C166.919 143.542 166.874 143.539 166.828 143.536C166.394 143.498 165.965 143.45 165.535 143.398C165.468 143.389 165.401 143.382 165.335 143.373C164.92 143.319 164.508 143.26 164.098 143.193C164.021 143.181 163.944 143.168 163.866 143.156C163.465 143.089 163.065 143.016 162.669 142.937C162.588 142.921 162.508 142.904 162.428 142.888C162.034 142.806 161.642 142.722 161.252 142.628C161.176 142.61 161.102 142.591 161.028 142.573C160.641 142.478 160.258 142.38 159.878 142.274C159.809 142.255 159.742 142.235 159.674 142.216C159.332 142.119 158.992 142.017 158.655 141.911C158.568 141.885 158.482 141.859 158.397 141.831C158.056 141.721 157.717 141.605 157.381 141.486C157.308 141.461 157.234 141.437 157.161 141.412C157.162 141.41 157.162 141.41 157.164 141.409C145.592 137.232 137.455 127.833 137.455 117.321C137.455 103.663 151.184 93.0143 168.343 93.5421Z" fill="url(#paint80_linear_116_1956)"/>
<path d="M134.152 117.318C134.152 130.973 147.881 142.753 165.04 143.642C182.45 144.543 196.75 133.92 196.75 119.9C196.75 105.881 182.448 94.0774 165.04 93.5421C147.883 93.0143 134.152 103.663 134.152 117.318Z" fill="url(#paint81_linear_116_1956)"/>
<g opacity="0.3">
<path d="M157.467 136.89C161.224 129.69 157.425 122.621 162.508 118.064C167.693 113.415 174.466 118.213 181.797 114.53C184.645 113.1 187.818 110.269 190.182 104.272C194.299 108.682 196.752 114.111 196.752 119.902C196.752 133.921 182.45 144.546 165.041 143.643C161.088 143.438 157.32 142.656 153.861 141.409C155.564 139.926 156.694 138.371 157.467 136.89Z" fill="url(#paint82_linear_116_1956)"/>
</g>
<path d="M95.0187 205.198C91.9811 201.391 90.2305 196.922 90.2305 192.14C90.2305 178.239 105.025 166.969 123.276 166.969C141.527 166.969 156.321 178.239 156.321 192.14C156.321 206.042 141.527 217.312 123.276 217.312C116.435 217.312 110.081 215.729 104.809 213.018C101.324 213.613 95.9149 214.612 93.06 215.145C92.2189 215.301 91.5308 214.478 91.8325 213.679L95.0187 205.198Z" fill="url(#paint83_linear_116_1956)"/>
<g opacity="0.2">
<path d="M105.193 197.468C112.603 194.351 120.751 200.929 125.846 196.341C130.98 191.715 125.434 182.571 130.352 176.055C132.697 172.947 136.637 171.477 141.144 170.964C150.275 175.442 156.322 183.254 156.322 192.142C156.322 206.044 141.527 217.314 123.276 217.314C116.436 217.314 110.081 215.73 104.81 213.02C102.061 213.49 98.1134 214.211 95.168 214.755C97.3407 203.482 101.337 199.09 105.193 197.468Z" fill="url(#paint84_linear_116_1956)"/>
</g>
<defs>
<linearGradient id="paint0_linear_116_1956" x1="216.944" y1="463.946" x2="214.145" y2="363.561" gradientUnits="userSpaceOnUse">
<stop offset="0.802319" stop-color="#EBEFF2"/>
<stop offset="1" stop-color="#AA80F9" stop-opacity="0.41"/>
</linearGradient>
<linearGradient id="paint1_linear_116_1956" x1="168.186" y1="184.34" x2="334.607" y2="489.433" gradientUnits="userSpaceOnUse">
<stop stop-color="#444B8C"/>
<stop offset="0.9964" stop-color="#26264F"/>
</linearGradient>
<linearGradient id="paint2_linear_116_1956" x1="192.972" y1="94.9715" x2="222.852" y2="277.008" gradientUnits="userSpaceOnUse">
<stop offset="0.00359712" stop-color="#E38DDD"/>
<stop offset="1" stop-color="#9571F6"/>
</linearGradient>
<linearGradient id="paint3_linear_116_1956" x1="177.442" y1="148.018" x2="247.439" y2="148.018" gradientUnits="userSpaceOnUse">
<stop stop-color="#FF9085"/>
<stop offset="1" stop-color="#FB6FBB"/>
</linearGradient>
<linearGradient id="paint4_linear_116_1956" x1="177.442" y1="154.913" x2="247.439" y2="154.913" gradientUnits="userSpaceOnUse">
<stop stop-color="#FF9085"/>
<stop offset="1" stop-color="#FB6FBB"/>
</linearGradient>
<linearGradient id="paint5_linear_116_1956" x1="165.146" y1="175.297" x2="214.88" y2="175.297" gradientUnits="userSpaceOnUse">
<stop stop-color="#FF9085"/>
<stop offset="1" stop-color="#FB6FBB"/>
</linearGradient>
<linearGradient id="paint6_linear_116_1956" x1="193.607" y1="95.0813" x2="220.946" y2="261.642" gradientUnits="userSpaceOnUse">
<stop offset="0.00359712" stop-color="#E38DDD"/>
<stop offset="1" stop-color="#9571F6"/>
</linearGradient>
<linearGradient id="paint7_linear_116_1956" x1="148.883" y1="133.025" x2="198.584" y2="133.025" gradientUnits="userSpaceOnUse">
<stop stop-color="#FF9085"/>
<stop offset="1" stop-color="#FB6FBB"/>
</linearGradient>
<linearGradient id="paint8_linear_116_1956" x1="177.442" y1="285.998" x2="247.439" y2="285.998" gradientUnits="userSpaceOnUse">
<stop stop-color="#FF9085"/>
<stop offset="1" stop-color="#FB6FBB"/>
</linearGradient>
<linearGradient id="paint9_linear_116_1956" x1="177.442" y1="292.894" x2="247.439" y2="292.894" gradientUnits="userSpaceOnUse">
<stop stop-color="#FF9085"/>
<stop offset="1" stop-color="#FB6FBB"/>
</linearGradient>
<linearGradient id="paint10_linear_116_1956" x1="209.419" y1="298.604" x2="277.605" y2="298.604" gradientUnits="userSpaceOnUse">
<stop stop-color="#FF9085"/>
<stop offset="1" stop-color="#FB6FBB"/>
</linearGradient>
<linearGradient id="paint11_linear_116_1956" x1="214.834" y1="130.526" x2="236.188" y2="260.626" gradientUnits="userSpaceOnUse">
<stop offset="0.00359712" stop-color="#E38DDD"/>
<stop offset="1" stop-color="#9571F6"/>
</linearGradient>
<linearGradient id="paint12_linear_116_1956" x1="148.883" y1="273.224" x2="198.584" y2="273.224" gradientUnits="userSpaceOnUse">
<stop stop-color="#FF9085"/>
<stop offset="1" stop-color="#FB6FBB"/>
</linearGradient>
<linearGradient id="paint13_linear_116_1956" x1="165.146" y1="203.152" x2="235.847" y2="203.152" gradientUnits="userSpaceOnUse">
<stop stop-color="#FF9085"/>
<stop offset="1" stop-color="#FB6FBB"/>
</linearGradient>
<linearGradient id="paint14_linear_116_1956" x1="177.442" y1="217.045" x2="247.439" y2="217.045" gradientUnits="userSpaceOnUse">
<stop stop-color="#FF9085"/>
<stop offset="1" stop-color="#FB6FBB"/>
</linearGradient>
<linearGradient id="paint15_linear_116_1956" x1="177.442" y1="223.94" x2="247.439" y2="223.94" gradientUnits="userSpaceOnUse">
<stop stop-color="#FF9085"/>
<stop offset="1" stop-color="#FB6FBB"/>
</linearGradient>
<linearGradient id="paint16_linear_116_1956" x1="149.006" y1="231.199" x2="193.863" y2="231.199" gradientUnits="userSpaceOnUse">
<stop stop-color="#FF9085"/>
<stop offset="1" stop-color="#FB6FBB"/>
</linearGradient>
<linearGradient id="paint17_linear_116_1956" x1="186.356" y1="106.106" x2="211.173" y2="257.302" gradientUnits="userSpaceOnUse">
<stop offset="0.00359712" stop-color="#E38DDD"/>
<stop offset="1" stop-color="#9571F6"/>
</linearGradient>
<linearGradient id="paint18_linear_116_1956" x1="177.442" y1="251.578" x2="240.716" y2="251.578" gradientUnits="userSpaceOnUse">
<stop stop-color="#FF9085"/>
<stop offset="1" stop-color="#FB6FBB"/>
</linearGradient>
<linearGradient id="paint19_linear_116_1956" x1="192.231" y1="258.184" x2="254.744" y2="258.184" gradientUnits="userSpaceOnUse">
<stop stop-color="#FF9085"/>
<stop offset="1" stop-color="#FB6FBB"/>
</linearGradient>
<linearGradient id="paint20_linear_116_1956" x1="192.231" y1="265.047" x2="254.744" y2="265.047" gradientUnits="userSpaceOnUse">
<stop stop-color="#FF9085"/>
<stop offset="1" stop-color="#FB6FBB"/>
</linearGradient>
<linearGradient id="paint21_linear_116_1956" x1="157.901" y1="99.5966" x2="185.404" y2="267.151" gradientUnits="userSpaceOnUse">
<stop offset="0.00359712" stop-color="#E38DDD"/>
<stop offset="1" stop-color="#9571F6"/>
</linearGradient>
<linearGradient id="paint22_linear_116_1956" x1="414.541" y1="30.9202" x2="339.152" y2="155.967" gradientUnits="userSpaceOnUse">
<stop stop-color="#AA80F9"/>
<stop offset="0.9964" stop-color="#6165D7"/>
</linearGradient>
<linearGradient id="paint23_linear_116_1956" x1="344.901" y1="181.005" x2="351.859" y2="122.46" gradientUnits="userSpaceOnUse">
<stop stop-color="#AA80F9"/>
<stop offset="0.9964" stop-color="#6165D7"/>
</linearGradient>
<linearGradient id="paint24_linear_116_1956" x1="389.842" y1="74.2965" x2="352.176" y2="136.313" gradientUnits="userSpaceOnUse">
<stop stop-color="#AA80F9"/>
<stop offset="0.9964" stop-color="#6165D7"/>
</linearGradient>
<linearGradient id="paint25_linear_116_1956" x1="403.685" y1="59.3061" x2="313.025" y2="191.671" gradientUnits="userSpaceOnUse">
<stop stop-color="#AA80F9"/>
<stop offset="0.9964" stop-color="#6165D7"/>
</linearGradient>
<linearGradient id="paint26_linear_116_1956" x1="378.7" y1="199.544" x2="382.839" y2="112.769" gradientUnits="userSpaceOnUse">
<stop stop-color="#FFC444"/>
<stop offset="0.9964" stop-color="#F36F56"/>
</linearGradient>
<linearGradient id="paint27_linear_116_1956" x1="382.289" y1="239.717" x2="392.343" y2="188.643" gradientUnits="userSpaceOnUse">
<stop stop-color="#FFC444"/>
<stop offset="0.9964" stop-color="#F36F56"/>
</linearGradient>
<linearGradient id="paint28_linear_116_1956" x1="321.118" y1="202.379" x2="362.86" y2="402.415" gradientUnits="userSpaceOnUse">
<stop stop-color="#FF9085"/>
<stop offset="1" stop-color="#FB6FBB"/>
</linearGradient>
<linearGradient id="paint29_linear_116_1956" x1="343.831" y1="411.905" x2="356.315" y2="412.265" gradientUnits="userSpaceOnUse">
<stop stop-color="#311944"/>
<stop offset="1" stop-color="#893976"/>
</linearGradient>
<linearGradient id="paint30_linear_116_1956" x1="303.289" y1="408.465" x2="316.084" y2="411.981" gradientUnits="userSpaceOnUse">
<stop stop-color="#311944"/>
<stop offset="1" stop-color="#893976"/>
</linearGradient>
<linearGradient id="paint31_linear_116_1956" x1="307.647" y1="386.856" x2="343.067" y2="307.049" gradientUnits="userSpaceOnUse">
<stop stop-color="#311944"/>
<stop offset="1" stop-color="#893976"/>
</linearGradient>
<linearGradient id="paint32_linear_116_1956" x1="325.029" y1="390.638" x2="369.959" y2="315.775" gradientUnits="userSpaceOnUse">
<stop stop-color="#311944"/>
<stop offset="1" stop-color="#893976"/>
</linearGradient>
<linearGradient id="paint33_linear_116_1956" x1="335.558" y1="199.365" x2="377.3" y2="399.401" gradientUnits="userSpaceOnUse">
<stop stop-color="#FF9085"/>
<stop offset="1" stop-color="#FB6FBB"/>
</linearGradient>
<linearGradient id="paint34_linear_116_1956" x1="371.423" y1="370.45" x2="355.582" y2="295.237" gradientUnits="userSpaceOnUse">
<stop stop-color="#FF9085"/>
<stop offset="1" stop-color="#FB6FBB"/>
</linearGradient>
<linearGradient id="paint35_linear_116_1956" x1="364.127" y1="193.404" x2="405.869" y2="393.44" gradientUnits="userSpaceOnUse">
<stop stop-color="#FF9085"/>
<stop offset="1" stop-color="#FB6FBB"/>
</linearGradient>
<linearGradient id="paint36_linear_116_1956" x1="328.573" y1="305.088" x2="335.328" y2="285.96" gradientUnits="userSpaceOnUse">
<stop offset="0.00359712" stop-color="#E38DDD"/>
<stop offset="1" stop-color="#9571F6"/>
</linearGradient>
<linearGradient id="paint37_linear_116_1956" x1="358.055" y1="277.372" x2="355.579" y2="294.476" gradientUnits="userSpaceOnUse">
<stop offset="0.00359712" stop-color="#E38DDD"/>
<stop offset="1" stop-color="#9571F6"/>
</linearGradient>
<linearGradient id="paint38_linear_116_1956" x1="309.023" y1="278.87" x2="322.189" y2="260.184" gradientUnits="userSpaceOnUse">
<stop offset="0.00359712" stop-color="#E38DDD"/>
<stop offset="1" stop-color="#9571F6"/>
</linearGradient>
<linearGradient id="paint39_linear_116_1956" x1="334.262" y1="309.805" x2="305.446" y2="251.301" gradientUnits="userSpaceOnUse">
<stop offset="0.00359712" stop-color="#E38DDD"/>
<stop offset="1" stop-color="#9571F6"/>
</linearGradient>
<linearGradient id="paint40_linear_116_1956" x1="348.327" y1="272.248" x2="285.071" y2="272.248" gradientUnits="userSpaceOnUse">
<stop offset="0.00359712" stop-color="#E38DDD"/>
<stop offset="1" stop-color="#9571F6"/>
</linearGradient>
<linearGradient id="paint41_linear_116_1956" x1="359.567" y1="229.243" x2="350.203" y2="205.211" gradientUnits="userSpaceOnUse">
<stop stop-color="#311944"/>
<stop offset="1" stop-color="#6B3976"/>
</linearGradient>
<linearGradient id="paint42_linear_116_1956" x1="356.679" y1="230.382" x2="347.305" y2="206.325" gradientUnits="userSpaceOnUse">
<stop stop-color="#311944"/>
<stop offset="1" stop-color="#6B3976"/>
</linearGradient>
<linearGradient id="paint43_linear_116_1956" x1="63.0607" y1="283.768" x2="49.9881" y2="231.503" gradientUnits="userSpaceOnUse">
<stop offset="0.003597" stop-color="#6165D7"/>
<stop offset="1" stop-color="#AA80F9"/>
</linearGradient>
<linearGradient id="paint44_linear_116_1956" x1="50.5899" y1="404.85" x2="43.6814" y2="409.439" gradientUnits="userSpaceOnUse">
<stop stop-color="#444B8C"/>
<stop offset="0.9964" stop-color="#26264F"/>
</linearGradient>
<linearGradient id="paint45_linear_116_1956" x1="43.9076" y1="409.485" x2="45.42" y2="398.792" gradientUnits="userSpaceOnUse">
<stop stop-color="#FFC444"/>
<stop offset="0.9964" stop-color="#F36F56"/>
</linearGradient>
<linearGradient id="paint46_linear_116_1956" x1="50.0716" y1="404.069" x2="43.1631" y2="408.658" gradientUnits="userSpaceOnUse">
<stop stop-color="#444B8C"/>
<stop offset="0.9964" stop-color="#26264F"/>
</linearGradient>
<linearGradient id="paint47_linear_116_1956" x1="94.4433" y1="408.278" x2="88.2447" y2="413.789" gradientUnits="userSpaceOnUse">
<stop stop-color="#444B8C"/>
<stop offset="0.9964" stop-color="#26264F"/>
</linearGradient>
<linearGradient id="paint48_linear_116_1956" x1="88.4745" y1="413.802" x2="88.4745" y2="403.003" gradientUnits="userSpaceOnUse">
<stop stop-color="#FFC444"/>
<stop offset="0.9964" stop-color="#F36F56"/>
</linearGradient>
<linearGradient id="paint49_linear_116_1956" x1="88.9841" y1="418.754" x2="48.5461" y2="255.564" gradientUnits="userSpaceOnUse">
<stop stop-color="#444B8C"/>
<stop offset="0.9964" stop-color="#26264F"/>
</linearGradient>
<linearGradient id="paint50_linear_116_1956" x1="121.777" y1="297.088" x2="19.5854" y2="226.051" gradientUnits="userSpaceOnUse">
<stop offset="0.003597" stop-color="#6165D7"/>
<stop offset="1" stop-color="#AA80F9"/>
</linearGradient>
<linearGradient id="paint51_linear_116_1956" x1="93.8202" y1="407.577" x2="87.6218" y2="413.088" gradientUnits="userSpaceOnUse">
<stop stop-color="#444B8C"/>
<stop offset="0.9964" stop-color="#26264F"/>
</linearGradient>
<linearGradient id="paint52_linear_116_1956" x1="87.8315" y1="210.515" x2="57.2819" y2="254.974" gradientUnits="userSpaceOnUse">
<stop stop-color="#FFC444"/>
<stop offset="0.9964" stop-color="#F36F56"/>
</linearGradient>
<linearGradient id="paint53_linear_116_1956" x1="86.3408" y1="209.491" x2="55.7917" y2="253.949" gradientUnits="userSpaceOnUse">
<stop stop-color="#FFC444"/>
<stop offset="0.9964" stop-color="#F36F56"/>
</linearGradient>
<linearGradient id="paint54_linear_116_1956" x1="50.9807" y1="272.498" x2="57.1501" y2="272.498" gradientUnits="userSpaceOnUse">
<stop offset="0.003597" stop-color="#6165D7"/>
<stop offset="1" stop-color="#AA80F9"/>
</linearGradient>
<linearGradient id="paint55_linear_116_1956" x1="55.4061" y1="282.079" x2="101.899" y2="282.079" gradientUnits="userSpaceOnUse">
<stop offset="0.003597" stop-color="#6165D7"/>
<stop offset="1" stop-color="#AA80F9"/>
</linearGradient>
<linearGradient id="paint56_linear_116_1956" x1="137.799" y1="250.674" x2="147.074" y2="262.338" gradientUnits="userSpaceOnUse">
<stop stop-color="#FFC444"/>
<stop offset="0.9964" stop-color="#F36F56"/>
</linearGradient>
<linearGradient id="paint57_linear_116_1956" x1="35.3539" y1="302.745" x2="133.018" y2="234.856" gradientUnits="userSpaceOnUse">
<stop offset="0.003597" stop-color="#6165D7"/>
<stop offset="1" stop-color="#AA80F9"/>
</linearGradient>
<linearGradient id="paint58_linear_116_1956" x1="243.848" y1="85.4517" x2="269.449" y2="85.4517" gradientUnits="userSpaceOnUse">
<stop stop-color="#FFC444"/>
<stop offset="0.9964" stop-color="#F36F56"/>
</linearGradient>
<linearGradient id="paint59_linear_116_1956" x1="199.761" y1="133.541" x2="249.406" y2="133.541" gradientUnits="userSpaceOnUse">
<stop stop-color="#AA80F9"/>
<stop offset="0.9964" stop-color="#6165D7"/>
</linearGradient>
<linearGradient id="paint60_linear_116_1956" x1="242.414" y1="188.506" x2="251.641" y2="226.094" gradientUnits="userSpaceOnUse">
<stop offset="0.00359712" stop-color="#E38DDD"/>
<stop offset="1" stop-color="#9571F6"/>
</linearGradient>
<linearGradient id="paint61_linear_116_1956" x1="223.097" y1="135.41" x2="272.741" y2="135.41" gradientUnits="userSpaceOnUse">
<stop stop-color="#AA80F9"/>
<stop offset="0.9964" stop-color="#6165D7"/>
</linearGradient>
<linearGradient id="paint62_linear_116_1956" x1="245.143" y1="200.284" x2="248.371" y2="200.284" gradientUnits="userSpaceOnUse">
<stop stop-color="#311944"/>
<stop offset="1" stop-color="#A03976"/>
</linearGradient>
<linearGradient id="paint63_linear_116_1956" x1="226.27" y1="102.703" x2="270.808" y2="156.793" gradientUnits="userSpaceOnUse">
<stop stop-color="#AA80F9"/>
<stop offset="0.9964" stop-color="#6165D7"/>
</linearGradient>
<linearGradient id="paint64_linear_116_1956" x1="350.457" y1="28.2218" x2="294.146" y2="80.4517" gradientUnits="userSpaceOnUse">
<stop stop-color="#444B8C"/>
<stop offset="0.9964" stop-color="#26264F"/>
</linearGradient>
<linearGradient id="paint65_linear_116_1956" x1="303" y1="104.307" x2="255.169" y2="61.3236" gradientUnits="userSpaceOnUse">
<stop stop-color="#FFC444"/>
<stop offset="0.9964" stop-color="#F36F56"/>
</linearGradient>
<linearGradient id="paint66_linear_116_1956" x1="272.436" y1="54.941" x2="289.293" y2="54.941" gradientUnits="userSpaceOnUse">
<stop stop-color="#311944"/>
<stop offset="1" stop-color="#A03976"/>
</linearGradient>
<linearGradient id="paint67_linear_116_1956" x1="274.572" y1="98.6525" x2="274.208" y2="65.3694" gradientUnits="userSpaceOnUse">
<stop stop-color="#311944"/>
<stop offset="1" stop-color="#A03976"/>
</linearGradient>
<linearGradient id="paint68_linear_116_1956" x1="301.428" y1="106.055" x2="253.597" y2="63.0711" gradientUnits="userSpaceOnUse">
<stop stop-color="#FFC444"/>
<stop offset="0.9964" stop-color="#F36F56"/>
</linearGradient>
<linearGradient id="paint69_linear_116_1956" x1="285.674" y1="112.882" x2="242.188" y2="112.882" gradientUnits="userSpaceOnUse">
<stop offset="0.00359712" stop-color="#E38DDD"/>
<stop offset="1" stop-color="#9571F6"/>
</linearGradient>
<linearGradient id="paint70_linear_116_1956" x1="264.996" y1="101.456" x2="205.309" y2="101.456" gradientUnits="userSpaceOnUse">
<stop offset="0.00359712" stop-color="#E38DDD"/>
<stop offset="1" stop-color="#9571F6"/>
</linearGradient>
<linearGradient id="paint71_linear_116_1956" x1="219.235" y1="85.6136" x2="247.758" y2="113.896" gradientUnits="userSpaceOnUse">
<stop offset="0.00359712" stop-color="#E38DDD"/>
<stop offset="1" stop-color="#9571F6"/>
</linearGradient>
<linearGradient id="paint72_linear_116_1956" x1="283.187" y1="103.986" x2="319.715" y2="68.059" gradientUnits="userSpaceOnUse">
<stop stop-color="#FFC444"/>
<stop offset="0.9964" stop-color="#F36F56"/>
</linearGradient>
<linearGradient id="paint73_linear_116_1956" x1="264.339" y1="108.208" x2="276.819" y2="108.208" gradientUnits="userSpaceOnUse">
<stop stop-color="#311944"/>
<stop offset="1" stop-color="#A03976"/>
</linearGradient>
<linearGradient id="paint74_linear_116_1956" x1="142.737" y1="17.564" x2="190.115" y2="28.7502" gradientUnits="userSpaceOnUse">
<stop stop-color="#311944"/>
<stop offset="1" stop-color="#893976"/>
</linearGradient>
<linearGradient id="paint75_linear_116_1956" x1="182.222" y1="4.69537" x2="141.577" y2="80.0432" gradientUnits="userSpaceOnUse">
<stop offset="0.00359712" stop-color="#E38DDD"/>
<stop offset="1" stop-color="#9571F6"/>
</linearGradient>
<linearGradient id="paint76_linear_116_1956" x1="194.126" y1="9.67465" x2="154.295" y2="89.5672" gradientUnits="userSpaceOnUse">
<stop offset="0.00359712" stop-color="#E38DDD"/>
<stop offset="1" stop-color="#9571F6"/>
</linearGradient>
<linearGradient id="paint77_linear_116_1956" x1="174.69" y1="27.4455" x2="93.7082" y2="75.8447" gradientUnits="userSpaceOnUse">
<stop stop-color="#311944"/>
<stop offset="1" stop-color="#893976"/>
</linearGradient>
<linearGradient id="paint78_linear_116_1956" x1="114.865" y1="45.6636" x2="69.6401" y2="129.502" gradientUnits="userSpaceOnUse">
<stop stop-color="#FF9085"/>
<stop offset="1" stop-color="#FB6FBB"/>
</linearGradient>
<linearGradient id="paint79_linear_116_1956" x1="128.111" y1="51.204" x2="83.7918" y2="140.099" gradientUnits="userSpaceOnUse">
<stop stop-color="#FF9085"/>
<stop offset="1" stop-color="#FB6FBB"/>
</linearGradient>
<linearGradient id="paint80_linear_116_1956" x1="136.96" y1="111.093" x2="184.337" y2="122.279" gradientUnits="userSpaceOnUse">
<stop stop-color="#FFC444"/>
<stop offset="0.9964" stop-color="#F36F56"/>
</linearGradient>
<linearGradient id="paint81_linear_116_1956" x1="176.446" y1="98.2246" x2="135.801" y2="173.572" gradientUnits="userSpaceOnUse">
<stop stop-color="#FFC444"/>
<stop offset="0.9964" stop-color="#F36F56"/>
</linearGradient>
<linearGradient id="paint82_linear_116_1956" x1="188.35" y1="103.204" x2="148.519" y2="183.097" gradientUnits="userSpaceOnUse">
<stop stop-color="#FFC444"/>
<stop offset="0.9964" stop-color="#F36F56"/>
</linearGradient>
<linearGradient id="paint83_linear_116_1956" x1="122.829" y1="179.074" x2="127.196" y2="306.478" gradientUnits="userSpaceOnUse">
<stop offset="0.00359712" stop-color="#E38DDD"/>
<stop offset="1" stop-color="#9571F6"/>
</linearGradient>
<linearGradient id="paint84_linear_116_1956" x1="147.598" y1="174.748" x2="90.2118" y2="250.289" gradientUnits="userSpaceOnUse">
<stop offset="0.00359712" stop-color="#E38DDD"/>
<stop offset="1" stop-color="#9571F6"/>
</linearGradient>
</defs>
</svg>
