<svg width="222" height="82" viewBox="0 0 222 82" fill="none" xmlns="http://www.w3.org/2000/svg">
<path fill-rule="evenodd" clip-rule="evenodd" d="M27.7558 11.783H17.8733V21.9519H7.7041L7.7041 31.8345H17.8733V42.1467H27.7558V31.8345H38.0679V21.9519H27.7558V11.783Z" fill="#DF646E"/>
<path d="M111.244 17.4057H107.625V28.2037H99.7021V0H107.625V10.9592H111.445L118.161 0H126.526L117.719 13.6184L126.606 28.2037H117.638L111.244 17.4057Z" fill="#DF646E"/>
<path d="M156.206 0V28.2037H148.364V6.32569H140.281L140.12 10.9189C139.986 14.948 139.651 18.225 139.115 20.7499C138.606 23.2748 137.721 25.2356 136.461 26.6324C135.201 28.0023 133.418 28.6872 131.112 28.6872C130.04 28.6872 128.833 28.5261 127.493 28.2037L127.935 21.6766C128.284 21.7572 128.646 21.7974 129.021 21.7974C130.066 21.7974 130.871 21.3811 131.434 20.5484C131.997 19.7157 132.399 18.5607 132.64 17.0834C132.882 15.5792 133.042 13.6318 133.123 11.2412L133.525 0H156.206Z" fill="#DF646E"/>
<path d="M162.228 0H170.07V16.5596L181.692 0H189.172V28.2037H181.33V11.6844L169.748 28.2037H162.228V0Z" fill="#DF646E"/>
<path d="M222 0V28.2037H214.038V17.2043H203.18V28.2037H195.217V0H203.18V10.5965H214.038V0H222Z" fill="#DF646E"/>
<path d="M114.795 36.08C117.203 36.08 119.386 36.6418 121.345 37.7655C123.335 38.8571 124.892 40.4142 126.016 42.4369C127.14 44.4275 127.702 46.7552 127.702 49.4199C127.702 52.0847 127.14 54.4285 126.016 56.4511C124.892 58.4417 123.335 59.9988 121.345 61.1225C119.386 62.2141 117.203 62.7599 114.795 62.7599C111.488 62.7599 108.887 61.7165 106.993 59.6296V71.7175H99.4805V36.4652H106.656V39.4511C108.518 37.2037 111.231 36.08 114.795 36.08ZM113.495 56.5956C115.421 56.5956 116.994 55.9535 118.214 54.6692C119.466 53.3529 120.092 51.6031 120.092 49.4199C120.092 47.2367 119.466 45.503 118.214 44.2188C116.994 42.9025 115.421 42.2443 113.495 42.2443C111.568 42.2443 109.979 42.9025 108.727 44.2188C107.507 45.503 106.897 47.2367 106.897 49.4199C106.897 51.6031 107.507 53.3529 108.727 54.6692C109.979 55.9535 111.568 56.5956 113.495 56.5956Z" fill="#3668B7"/>
<path d="M158.154 49.5163C158.154 49.6126 158.106 50.2868 158.01 51.5389H138.409C138.762 53.1442 139.597 54.4124 140.913 55.3435C142.23 56.2745 143.867 56.7401 145.825 56.7401C147.174 56.7401 148.362 56.5474 149.389 56.1622C150.449 55.7448 151.428 55.1027 152.327 54.2358L156.324 58.5701C153.884 61.3633 150.32 62.7599 145.633 62.7599C142.711 62.7599 140.127 62.1981 137.879 61.0744C135.632 59.9186 133.898 58.3293 132.678 56.3066C131.458 54.284 130.848 51.9884 130.848 49.4199C130.848 46.8836 131.442 44.6041 132.63 42.5814C133.85 40.5266 135.503 38.9374 137.59 37.8137C139.709 36.6579 142.069 36.08 144.67 36.08C147.206 36.08 149.502 36.6258 151.556 37.7174C153.611 38.809 155.216 40.3821 156.372 42.4369C157.56 44.4596 158.154 46.8194 158.154 49.5163ZM144.718 41.7627C143.016 41.7627 141.587 42.2443 140.432 43.2075C139.276 44.1706 138.569 45.487 138.313 47.1565H151.075C150.818 45.5191 150.112 44.2188 148.956 43.2556C147.8 42.2603 146.387 41.7627 144.718 41.7627Z" fill="#3668B7"/>
<path d="M175.326 52.5503H171.426V62.3747H163.913V36.4652H171.426V46.5304H175.471L182.502 36.4652H190.496L181.443 48.8902L191.123 62.3747H182.261L175.326 52.5503Z" fill="#3668B7"/>
<path d="M194.812 36.4652H202.276V51.876L214.894 36.4652H221.78V62.3747H214.316V46.9638L201.746 62.3747H194.812V36.4652Z" fill="#3668B7"/>
<path fill-rule="evenodd" clip-rule="evenodd" d="M93.3572 37.9067C87.9816 33.6929 81.34 29.9105 70.5788 29.9105C57.0016 29.9105 49.9823 35.9313 43.7892 41.2433L43.7887 41.2437C37.9322 46.2669 32.8741 50.6052 22.3243 50.6052C11.7745 50.6052 6.71701 46.2669 0.860743 41.2434L0.860589 41.2433C0.592426 41.0133 0.303039 40.8241 0 40.6751V51.1396C5.29625 55.2098 11.8638 58.7839 22.3243 58.7839C35.9012 58.7837 42.9206 52.7632 49.1136 47.4514L49.1139 47.4511L49.1144 47.4507C54.9709 42.4275 60.029 38.0892 70.5788 38.0892C81.129 38.0892 86.1871 42.4277 92.0436 47.451L92.0438 47.4511C92.4429 47.7934 92.889 48.0453 93.3572 48.2087V37.9067Z" fill="#3668B7"/>
<path fill-rule="evenodd" clip-rule="evenodd" d="M0 73.5068C5.29633 77.5771 11.864 81.1511 22.3243 81.1511C35.9015 81.1511 42.9209 75.1303 49.114 69.8183L49.1145 69.8179C54.971 64.7947 60.0291 60.4564 70.5789 60.4564C81.1291 60.4564 86.1872 64.7949 92.0436 69.8182L92.0438 69.8183C92.4429 70.1606 92.889 70.4125 93.3571 70.5759V60.2738C87.9815 56.06 81.34 52.2777 70.5789 52.2777C57.0017 52.2777 49.9823 58.2984 43.7892 63.6105L43.7888 63.6109C37.9322 68.6341 32.8741 72.9724 22.3243 72.9724C11.7752 72.9724 6.71727 68.6341 0.861011 63.611L0.86084 63.6109L0.860432 63.6105C0.592311 63.3806 0.302978 63.1915 0 63.0426V73.5068Z" fill="#3668B7"/>
</svg>
