<svg width="57" height="21" viewBox="0 0 57 21" fill="none" xmlns="http://www.w3.org/2000/svg">
<path d="M7.18349 0H3.64306V3.49733L0 3.49733V6.89615H3.64306V10.4428H7.18349V6.89615H10.8779V3.49733L7.18349 3.49733V0Z" fill="white"/>
<path d="M28.9963 4.38631H28.0812V7.10745H26.0781V0H28.0812V2.76175H29.0471L30.7452 0H32.8601L30.6333 3.43188L32.8804 7.10745H30.613L28.9963 4.38631Z" fill="white"/>
<path d="M40.3645 0V7.10745H38.3817V1.5941H36.338L36.2973 2.7516C36.2634 3.76695 36.1787 4.59276 36.0431 5.22905C35.9143 5.86533 35.6906 6.35947 35.372 6.71146C35.0535 7.05668 34.6027 7.22929 34.0197 7.22929C33.7486 7.22929 33.4435 7.18867 33.1046 7.10745L33.2165 5.46258C33.3046 5.48289 33.3961 5.49304 33.491 5.49304C33.7554 5.49304 33.9587 5.38812 34.1011 5.17828C34.2434 4.96844 34.3451 4.67738 34.4061 4.30508C34.4671 3.92602 34.5078 3.43527 34.5281 2.83282L34.6298 0H40.3645Z" fill="white"/>
<path d="M41.887 0H43.8697V4.17309L46.8082 0H48.6994V7.10745H46.7167V2.94451L43.7884 7.10745H41.887V0Z" fill="white"/>
<path d="M56.9996 0V7.10745H54.9864V4.33554H52.241V7.10745H50.2278V0H52.241V2.67037H54.9864V0H56.9996Z" fill="white"/>
<path d="M29.7683 9.43127C30.4166 9.43127 30.9942 9.57241 31.5012 9.85469C32.0165 10.137 32.4196 10.5355 32.7105 11.0502C33.0014 11.565 33.1469 12.1586 33.1469 12.8311C33.1469 13.5036 33.0014 14.1013 32.7105 14.6244C32.4196 15.1391 32.0165 15.5376 31.5012 15.8199C30.9942 16.1022 30.4166 16.2433 29.7683 16.2433C28.8707 16.2433 28.1601 15.9445 27.6365 15.3467V18.5722H26.0781V9.506H27.5617V10.3777C27.8193 10.0623 28.1352 9.82564 28.5092 9.66789C28.8915 9.51015 29.3112 9.43127 29.7683 9.43127ZM29.5938 14.9108C30.1673 14.9108 30.6369 14.7199 31.0025 14.338C31.3766 13.9561 31.5636 13.4538 31.5636 12.8311C31.5636 12.2084 31.3766 11.7061 31.0025 11.3242C30.6369 10.9423 30.1673 10.7513 29.5938 10.7513C29.2198 10.7513 28.8832 10.8385 28.584 11.0129C28.2848 11.1789 28.0479 11.4197 27.8734 11.7352C27.6988 12.0507 27.6116 12.416 27.6116 12.8311C27.6116 13.2462 27.6988 13.6115 27.8734 13.927C28.0479 14.2425 28.2848 14.4874 28.584 14.6618C28.8832 14.8278 29.2198 14.9108 29.5938 14.9108Z" fill="white"/>
<path d="M40.9313 12.8684C40.9313 12.9764 40.9229 13.13 40.9063 13.3292H35.6827C35.7741 13.8191 36.011 14.2093 36.3933 14.4999C36.7839 14.7821 37.266 14.9233 37.8395 14.9233C38.5709 14.9233 39.1734 14.6825 39.6472 14.201L40.4824 15.1599C40.1832 15.5169 39.8051 15.7867 39.348 15.9694C38.8908 16.152 38.3755 16.2433 37.8021 16.2433C37.0707 16.2433 36.4265 16.0981 35.8697 15.8075C35.3128 15.5169 34.8807 15.1142 34.5731 14.5995C34.2739 14.0764 34.1243 13.487 34.1243 12.8311C34.1243 12.1835 34.2698 11.6023 34.5607 11.0876C34.8599 10.5645 35.2713 10.1577 35.7949 9.86715C36.3185 9.57657 36.9086 9.43127 37.5652 9.43127C38.2135 9.43127 38.7911 9.57657 39.2981 9.86715C39.8134 10.1494 40.2123 10.5521 40.4949 11.0751C40.7858 11.5899 40.9313 12.1877 40.9313 12.8684ZM37.5652 10.6766C37.0665 10.6766 36.6426 10.8261 36.2936 11.125C35.9528 11.4155 35.745 11.8057 35.6702 12.2956H39.4477C39.3812 11.814 39.1776 11.4238 38.8368 11.125C38.4961 10.8261 38.0722 10.6766 37.5652 10.6766Z" fill="white"/>
<path d="M45.4034 13.4911H44.1941V16.1562H42.6357V9.506H44.1941V12.196H45.4408L47.4105 9.506H49.0811L46.6625 12.7065L49.2432 16.1562H47.4105L45.4034 13.4911Z" fill="white"/>
<path d="M50.3423 9.506H51.9007V13.8896L55.5784 9.506H56.9996V16.1562H55.4412V11.7725L51.776 16.1562H50.3423V9.506Z" fill="white"/>
<path d="M23.6041 9.55273C22.245 8.49083 20.5657 7.53764 17.8449 7.53764C14.4121 7.53764 12.6373 9.05489 11.0715 10.3935L11.0714 10.3936C9.59063 11.6595 8.31175 12.7528 5.64437 12.7528C2.977 12.7528 1.69828 11.6595 0.217598 10.3936C0.149806 10.3356 0.0766087 10.2879 0 10.2504V12.8875C1.33908 13.9132 2.99961 14.8138 5.64437 14.8138C9.07713 14.8138 10.8519 13.2966 12.4177 11.958L12.4179 11.9578C13.8987 10.692 15.1775 9.5987 17.8449 9.5987C20.5124 9.5987 21.7913 10.692 23.272 11.9579C23.3729 12.0442 23.4858 12.1077 23.6041 12.1489V9.55273Z" fill="white"/>
<path d="M0 18.5241C1.3391 19.5498 2.99965 20.4505 5.64439 20.4505C9.07721 20.4505 10.852 18.9332 12.4178 17.5946L12.4179 17.5945C13.8987 16.3286 15.1776 15.2353 17.8449 15.2353C20.5124 15.2353 21.7913 16.3286 23.272 17.5945C23.3729 17.6808 23.4858 17.7443 23.6042 17.7855V15.1893C22.245 14.1274 20.5658 13.1743 17.8449 13.1743C14.4121 13.1743 12.6374 14.6915 11.0715 16.0302L11.0714 16.0303C9.59065 17.2961 8.31177 18.3894 5.64439 18.3894C2.97718 18.3894 1.69835 17.2961 0.217675 16.0303L0.217527 16.0302C0.149743 15.9722 0.076596 15.9246 0 15.8871V18.5241Z" fill="white"/>
</svg>
